#!OML:ASF F:\VICON\USERDATA\INSTALL\rory3\rory3.ASF
:FULLY-SPECIFIED
:DEGREES
3932
root 1.53666 18.7986 2.70581 -3.55846 -17.2315 -2.0083
lowerback 8.49675 3.57616 -2.54155
upperback -0.147551 4.41605 -1.69759
thorax -4.97084 2.21999 -0.902699
lowerneck -15.0366 3.03296 -4.45664
upperneck 12.0081 3.51775 10.4185
head 5.82289 2.34849 4.38182
rclavicle -4.75654e-014 -4.77083e-015
rhumerus -30.2277 6.58625 -76.5498
rradius 48.4946
rwrist -24.8777
rhand -29.3928 358.791
rfingers 7.12502
rthumb -2.73101 -31.1716
lclavicle -4.75654e-014 -4.77083e-015
lhumerus 45.4186 45.3243 61.7189
lradius 49.3523
lwrist -9.73766
lhand -45.111 31.0239
lfingers 7.12502
lthumb -17.8904 60.221
rfemur -7.98117 14.8246 9.10694
rtibia 25.3625
rfoot -8.06292 -21.3168
rtoes -6.20189
lfemur -2.58727 -2.25765 -13.054
ltibia 21.9948
lfoot -12.3394 16.384
ltoes -9.12418
3933
root 1.54108 18.7917 2.6888 -3.60244 -17.3166 -1.99867
lowerback 8.49772 3.59205 -2.55727
upperback -0.087381 4.43597 -1.71384
thorax -4.90849 2.22957 -0.910644
lowerneck -14.9547 3.02858 -4.64971
upperneck 12.0593 3.51123 10.6765
head 5.81676 2.35585 4.49573
rclavicle -2.00959e-014 0
rhumerus -30.1626 6.63556 -76.751
rradius 48.2608
rwrist -24.9101
rhand -29.4542 358.638
rfingers 7.12502
rthumb -2.79032 -31.3235
lclavicle -2.00959e-014 0
lhumerus 45.0805 44.8269 61.7781
lradius 49.5314
lwrist -9.50442
lhand -45.3171 31.1156
lfingers 7.12502
lthumb -18.0887 60.2945
rfemur -8.11823 14.4887 9.2043
rtibia 26.2691
rfoot -8.50566 -21.1168
rtoes -5.53467
lfemur -2.69694 -2.16639 -13.0513
ltibia 22.2208
lfoot -12.4261 16.3433
ltoes -9.22823
3934
root 1.5439 18.7846 2.67305 -3.68281 -17.3406 -1.91191
lowerback 8.53668 3.56893 -2.6778
upperback -0.0569471 4.39204 -1.71251
thorax -4.90755 2.2104 -0.838198
lowerneck -14.8312 3.04618 -4.66811
upperneck 12.1738 3.53031 10.6646
head 5.82967 2.3619 4.49627
rclavicle -4.15274e-014 3.57812e-014
rhumerus -30.1527 6.74091 -76.937
rradius 48.0088
rwrist -24.856
rhand -29.5654 358.621
rfingers 7.12502
rthumb -2.89775 -31.3393
lclavicle -4.15274e-014 3.57812e-014
lhumerus 44.4561 44.2879 61.4425
lradius 49.567
lwrist -9.18401
lhand -45.5208 31.4709
lfingers 7.12502
lthumb -18.2847 60.6315
rfemur -8.23346 14.1346 9.22303
rtibia 27.2272
rfoot -8.7194 -20.8722
rtoes -5.6901
lfemur -2.80547 -2.03731 -13.1192
ltibia 22.441
lfoot -12.4439 16.2207
ltoes -9.44409
3935
root 1.54392 18.7756 2.65397 -3.81597 -17.3477 -1.75175
lowerback 8.6484 3.5661 -2.82291
upperback -0.0354239 4.36579 -1.77362
thorax -4.95381 2.19968 -0.824525
lowerneck -14.741 3.02745 -4.6376
upperneck 12.3394 3.4856 10.6593
head 5.87069 2.3412 4.48843
rclavicle -4.45588e-014 -7.95139e-016
rhumerus -30.2165 6.78442 -77.176
rradius 47.802
rwrist -24.7984
rhand -29.8571 358.379
rfingers 7.12502
rthumb -3.17944 -31.5766
lclavicle -4.45588e-014 -7.95139e-016
lhumerus 44.1809 43.7404 61.5499
lradius 49.6732
lwrist -9.1749
lhand -45.6322 31.6477
lfingers 7.12502
lthumb -18.3919 60.7982
rfemur -8.33437 13.8417 9.16847
rtibia 28.2287
rfoot -8.81153 -20.5831
rtoes -5.66629
lfemur -2.88362 -1.89644 -13.2441
ltibia 22.6414
lfoot -12.5085 16.0511
ltoes -9.3136
3936
root 1.54115 18.7663 2.63245 -3.9556 -17.3264 -1.54449
lowerback 8.75342 3.55609 -2.99569
upperback 0.0004664 4.32501 -1.87886
thorax -4.97967 2.18173 -0.838164
lowerneck -14.7193 2.98532 -4.51197
upperneck 12.5097 3.40589 10.544
head 5.93177 2.30081 4.4286
rclavicle -1.39957e-014 2.06736e-014
rhumerus -30.3163 6.872 -77.4607
rradius 47.7166
rwrist -24.742
rhand -29.9731 358.387
rfingers 7.12502
rthumb -3.29147 -31.5674
lclavicle -1.39957e-014 2.06736e-014
lhumerus 44.1697 43.2421 61.9776
lradius 49.9486
lwrist -9.29483
lhand -45.7306 31.7397
lfingers 7.12502
lthumb -18.4866 60.8813
rfemur -8.44475 13.5584 9.07498
rtibia 29.2688
rfoot -8.89365 -20.2688
rtoes -5.86074
lfemur -2.96906 -1.73227 -13.4138
ltibia 22.852
lfoot -12.5271 15.8791
ltoes -9.23704
3937
root 1.53863 18.7598 2.60961 -4.00941 -17.2784 -1.46558
lowerback 8.80846 3.52338 -3.08293
upperback 0.0372243 4.26905 -1.90981
thorax -4.97554 2.15532 -0.816551
lowerneck -14.6623 2.96253 -4.42859
upperneck 12.6081 3.36925 10.4074
head 5.96006 2.27585 4.36893
rclavicle -5.46906e-014 1.90833e-014
rhumerus -30.3507 7.0054 -77.6697
rradius 47.6644
rwrist -24.6456
rhand -29.9147 358.477
rfingers 7.12502
rthumb -3.23504 -31.4783
lclavicle -5.46906e-014 1.90833e-014
lhumerus 44.2636 42.7757 62.6325
lradius 50.3144
lwrist -9.57475
lhand -45.9022 31.9558
lfingers 7.12502
lthumb -18.6516 61.0816
rfemur -8.6119 13.2184 9.11702
rtibia 30.2983
rfoot -8.88907 -20.034
rtoes -6.72253
lfemur -3.14558 -1.68057 -13.4582
ltibia 23.1
lfoot -12.4737 15.8232
ltoes -9.41756
3938
root 1.53534 18.7525 2.588 -4.02784 -17.2186 -1.55269
lowerback 8.8226 3.47218 -2.97429
upperback 0.117022 4.21455 -1.89355
thorax -4.89239 2.12539 -0.849761
lowerneck -14.7488 2.97531 -4.44245
upperneck 12.7759 3.38195 10.3958
head 6.02638 2.2844 4.37623
rclavicle 5.86415e-015 -1.98785e-014
rhumerus -30.2808 7.09888 -77.8598
rradius 47.5375
rwrist -24.5016
rhand -29.81 358.6
rfingers 7.12502
rthumb -3.13396 -31.3567
lclavicle 5.86415e-015 -1.98785e-014
lhumerus 44.3964 42.2802 63.3273
lradius 50.7186
lwrist -9.88949
lhand -46.1354 32.3822
lfingers 7.12502
lthumb -18.876 61.4863
rfemur -8.72767 12.9124 9.34771
rtibia 31.2923
rfoot -8.63817 -19.9688
rtoes -7.03403
lfemur -3.34151 -1.64227 -13.3132
ltibia 23.3869
lfoot -12.4812 15.7018
ltoes -9.6533
3939
root 1.53073 18.7455 2.56456 -4.02138 -17.1385 -1.64913
lowerback 8.89119 3.42359 -2.82378
upperback 0.165463 4.16315 -1.90327
thorax -4.86787 2.09608 -0.938669
lowerneck -14.9997 2.93654 -4.25113
upperneck 13.1682 3.30142 10.1651
head 6.20755 2.24599 4.28254
rclavicle -5.86415e-015 3.97569e-015
rhumerus -30.2233 7.04528 -78.0654
rradius 47.3856
rwrist -24.263
rhand -29.7007 358.978
rfingers 7.12502
rthumb -3.02846 -30.9802
lclavicle -5.86415e-015 3.97569e-015
lhumerus 44.5152 41.6907 63.926
lradius 51.0305
lwrist -10.18
lhand -46.4054 32.5434
lfingers 7.12502
lthumb -19.1356 61.6221
rfemur -8.82433 12.6978 9.57962
rtibia 32.2353
rfoot -8.26386 -20.0645
rtoes -6.17255
lfemur -3.5645 -1.6452 -13.1479
ltibia 23.6438
lfoot -12.4915 15.5774
ltoes -9.81684
3940
root 1.52507 18.736 2.54303 -4.06828 -17.0633 -1.64909
lowerback 8.98184 3.37207 -2.79763
upperback 0.186321 4.09347 -1.90873
thorax -4.89399 2.06079 -0.954553
lowerneck -15.253 2.84897 -3.99966
upperneck 13.7309 3.15787 9.76254
head 6.45258 2.16706 4.1221
rclavicle -3.98936e-014 3.18055e-015
rhumerus -30.2195 7.06873 -78.2585
rradius 47.2763
rwrist -23.9392
rhand -29.5562 359.143
rfingers 7.12502
rthumb -2.88882 -30.8169
lclavicle -3.98936e-014 3.18055e-015
lhumerus 44.3821 41.048 64.1843
lradius 51.1925
lwrist -10.5495
lhand -46.4666 32.5997
lfingers 7.12502
lthumb -19.1944 61.6725
rfemur -8.88539 12.5646 9.70581
rtibia 33.1278
rfoot -8.02636 -20.1491
rtoes -5.84947
lfemur -3.72874 -1.64084 -13.0982
ltibia 23.8839
lfoot -12.5326 15.4772
ltoes -9.8446
3941
root 1.51747 18.7286 2.52757 -4.18101 -17.0008 -1.51236
lowerback 8.95284 3.31446 -2.92771
upperback 0.255469 4.00684 -1.89924
thorax -4.81439 2.02042 -0.856057
lowerneck -15.3146 2.82923 -3.95297
upperneck 14.0485 3.14346 9.50769
head 6.5704 2.14501 4.04131
rclavicle -1.49089e-016 -7.95139e-016
rhumerus -30.1883 7.3217 -78.4151
rradius 47.2383
rwrist -23.8849
rhand -29.5041 359.174
rfingers 7.12502
rthumb -2.83857 -30.7868
lclavicle -1.49089e-016 -7.95139e-016
lhumerus 44.2514 40.4912 64.5074
lradius 51.3787
lwrist -10.9016
lhand -46.5201 32.3564
lfingers 7.12502
lthumb -19.2459 61.4241
rfemur -8.87097 12.4272 9.70331
rtibia 33.9437
rfoot -7.96747 -20.1088
rtoes -6.56697
lfemur -3.78801 -1.65913 -13.206
ltibia 24.0354
lfoot -12.5598 15.4452
ltoes -9.86034
3942
root 1.50761 18.7224 2.50878 -4.27228 -16.9231 -1.46659
lowerback 8.95872 3.25198 -2.95519
upperback 0.350001 3.92367 -1.88783
thorax -4.72056 1.97916 -0.81417
lowerneck -15.3225 2.86887 -4.01347
upperneck 14.1474 3.20695 9.50001
head 6.59732 2.17283 4.05773
rclavicle -4.81556e-014 6.36111e-015
rhumerus -30.1252 7.51871 -78.5977
rradius 47.2445
rwrist -23.8394
rhand -29.6983 359.033
rfingers 7.12502
rthumb -3.02612 -30.9252
lclavicle -4.81556e-014 6.36111e-015
lhumerus 44.4325 39.9561 65.2631
lradius 51.7977
lwrist -11.354
lhand -46.4508 32.281
lfingers 7.12502
lthumb -19.1793 61.3553
rfemur -8.80523 12.3159 9.80005
rtibia 34.6643
rfoot -8.15965 -20.0553
rtoes -7.23815
lfemur -3.79366 -1.6342 -13.1915
ltibia 24.0636
lfoot -12.4911 15.3179
ltoes -9.63021
3943
root 1.49589 18.7203 2.49171 -4.41725 -16.7876 -1.32888
lowerback 9.05607 3.19908 -3.00345
upperback 0.424765 3.84264 -1.94709
thorax -4.69509 1.93869 -0.840939
lowerneck -15.3953 2.87847 -4.09752
upperneck 14.3235 3.21523 9.58999
head 6.66214 2.1834 4.10942
rclavicle -1.95057e-014 5.56597e-015
rhumerus -30.0849 7.55636 -78.8008
rradius 47.1871
rwrist -23.6566
rhand -29.9431 358.77
rfingers 7.12502
rthumb -3.26251 -31.1843
lclavicle -1.95057e-014 5.56597e-015
lhumerus 44.6352 39.2555 65.916
lradius 52.1398
lwrist -11.8453
lhand -46.2493 32.2836
lfingers 7.12502
lthumb -18.9855 61.377
rfemur -8.64064 12.2894 9.78511
rtibia 35.2513
rfoot -8.28371 -20.1377
rtoes -7.49465
lfemur -3.72769 -1.77575 -13.3011
ltibia 24.0465
lfoot -12.4082 15.3202
ltoes -9.77126
3944
root 1.48293 18.7212 2.47764 -4.54834 -16.624 -1.11333
lowerback 9.12382 3.13319 -3.17256
upperback 0.443584 3.73245 -1.987
thorax -4.72042 1.88711 -0.777076
lowerneck -15.2702 2.88808 -4.12511
upperneck 14.4219 3.23755 9.52343
head 6.67069 2.18518 4.09368
rclavicle -1.44864e-014 -1.19271e-014
rhumerus -30.0662 7.66803 -78.9718
rradius 47.0666
rwrist -23.4194
rhand -30.2 358.226
rfingers 7.12502
rthumb -3.5106 -31.7249
lclavicle -1.44864e-014 -1.19271e-014
lhumerus 44.462 38.4586 66.1981
lradius 52.4203
lwrist -12.3304
lhand -46.1807 32.5221
lfingers 7.12502
lthumb -18.9195 61.622
rfemur -8.47073 12.3771 9.67458
rtibia 35.6889
rfoot -8.31011 -20.3457
rtoes -8.91043
lfemur -3.69359 -2.07974 -13.5156
ltibia 24.0392
lfoot -12.4466 15.428
ltoes -9.49675
3945
root 1.46879 18.718 2.45945 -4.51341 -16.5317 -1.20402
lowerback 9.07967 3.04864 -3.06568
upperback 0.45777 3.63689 -1.92995
thorax -4.67646 1.83826 -0.761178
lowerneck -14.9585 2.91506 -4.15774
upperneck 14.2868 3.30032 9.42232
head 6.56984 2.19729 4.05837
rclavicle -8.51047e-015 -3.18055e-015
rhumerus -30.0675 7.90435 -79.1351
rradius 47.0453
rwrist -23.3692
rhand -30.4683 358.082
rfingers 7.12502
rthumb -3.76969 -31.8639
lclavicle -8.51047e-015 -3.18055e-015
lhumerus 44.2471 37.677 66.4667
lradius 52.755
lwrist -12.8033
lhand -46.2253 32.8576
lfingers 7.12502
lthumb -18.9624 61.9533
rfemur -8.38932 12.5901 9.9037
rtibia 35.9521
rfoot -8.13892 -20.5763
rtoes -11.083
lfemur -3.76797 -2.11918 -13.3429
ltibia 24.0123
lfoot -12.3644 15.358
ltoes -9.49652
3946
root 1.45173 18.7127 2.44052 -4.48893 -16.5048 -1.29464
lowerback 9.02313 2.97997 -2.95426
upperback 0.484944 3.56266 -1.89196
thorax -4.61092 1.79947 -0.769418
lowerneck -14.8317 2.98619 -4.15133
upperneck 14.3494 3.39878 9.36893
head 6.56143 2.23856 4.04685
rclavicle -9.18509e-014 1.27222e-014
rhumerus -30.0615 8.09768 -79.307
rradius 47.0426
rwrist -23.3596
rhand -30.4484 358.356
rfingers 7.12502
rthumb -3.75045 -31.5907
lclavicle -9.18509e-014 1.27222e-014
lhumerus 44.2779 36.9535 66.9036
lradius 52.9839
lwrist -13.3762
lhand -46.4908 32.7308
lfingers 7.12502
lthumb -19.2177 61.8012
rfemur -8.28544 12.9119 10.1276
rtibia 36.0599
rfoot -8.06512 -20.7343
rtoes -12.0174
lfemur -3.83188 -2.04383 -13.1447
ltibia 24.0067
lfoot -12.2783 15.2373
ltoes -9.68027
